<svg xmlns="http://www.w3.org/2000/svg" width="40" height="40" stroke="#000" stroke-linecap="round" stroke-linejoin="round" fill="#fff" fill-rule="evenodd"><path d="M39.2448 18.225L21.7818.7549C21.2988.2716 20.6438 0 19.9606 0s-1.3382.2716-1.8211.7549l-3.6248 3.6263 4.5997 4.6017c1.07-.3752 2.2949-.1188 3.1474.734.828.8298 1.1099 2.0595.7262 3.1674l4.4336 4.4353c1.0724-.37 2.3098-.1313 3.1661.7278.7743.7749 1.0766 1.9042.7929 2.9625s-1.11 1.8848-2.168 2.1683a3.065 3.065 0 0 1-2.961-.7942c-.8999-.9004-1.1225-2.2258-.6675-3.335l-4.1348-4.1365v10.8852c.3002.1486.5745.3445.8125.5802 1.1967 1.1975 1.1966 3.1387-.0003 4.336s-3.1374 1.1973-4.3342 0-1.1971-3.1385-.0003-4.336c.2962-.2951.625-.5189 1.0037-.669V14.7224c-.365-.15-.7075-.3713-1.0037-.669-.8803-.8795-1.1412-2.2046-.66-3.3524l-4.5373-4.5367L.7553 18.1312a2.576 2.576 0 0 0 0 3.645L18.2195 39.245a2.574 2.574 0 0 0 1.8212.755c.683 0 1.3381-.2716 1.8211-.755l17.383-17.3625c.4835-.4832.7552-1.1388.7552-1.8225s-.2717-1.3394-.7552-1.8225" stroke="none" fill="#f03c2e" fill-rule="nonzero"/></svg>