<svg xmlns="http://www.w3.org/2000/svg" width="76" height="76" stroke="none" stroke-linecap="round" stroke-linejoin="round" fill="#fff" fill-rule="nonzero"><path d="M75.3905 45.2803c-.4543-1.3344-1.6444-2.2641-3.1836-2.4873-.7258-.1051-1.557-.0602-2.5404.1365-1.7143.343-2.9861.4735-3.9143.499 3.5034-5.7375 6.3523-12.2805 7.9923-18.4395 2.6519-9.9587 1.2348-14.4955-.4212-16.5478C68.9408 3.0097 62.5467.0916 54.8325.0022c-4.1148-.0488-7.7276.7393-9.6119 1.3059-1.7547-.3001-3.6415-.4678-5.6211-.4989-3.7104-.0573-6.9891.7272-9.7906 2.3397-1.5513-.5086-4.0402-1.2257-6.9148-1.6835-6.7611-1.0766-12.21-.2376-16.1957 2.4934C1.8721 7.2656-.3654 13.0108.0485 21.035c.1312 2.5478 1.6007 10.299 3.9141 17.6504 1.3296 4.2252 2.7474 7.7342 4.214 10.4299 2.0798 3.8226 4.3052 6.0738 6.8035 6.8821 1.4005.4527 3.9448.7694 6.6209-1.392.3392.3982.7915.7942 1.3923 1.1618.7626.4666 1.6953.8478 2.6266 1.0738 3.3569.814 6.5012.6103 9.1837-.5305l.0401 1.2866.0588 1.7943c.1589 3.8397.4282 6.8252 1.2261 8.914.0438.115.1028.29.1651.4756.3979 1.1823 1.0637 3.1614 2.7572 4.7116 1.7539 1.6056 3.8752 2.0981 5.818 2.098.9743 0 1.9041-.124 2.7194-.2935 2.9068-.6041 6.2079-1.5247 8.5958-4.8227 2.2576-3.1179 3.3552-7.8138 3.5538-15.2132l.0724-.5993.0471-.3909.532.0453.137.009c2.9606.1309 6.5804-.4781 8.8036-1.4797 1.7567-.7908 7.3859-3.6733 6.0605-7.5653" fill="#000"/><path d="M70.3285 46.0373c-8.8025 1.7612-9.4077-1.1296-9.4077-1.1296 9.2941-13.3764 13.1793-30.3559 9.8264-34.5115C61.6004-.9395 45.7666 4.4215 45.5023 4.5607l-.085.0148c-1.7391-.3502-3.6854-.5588-5.8728-.5934-3.983-.0633-7.0043 1.0128-9.2969 2.6991 0 0-28.2458-11.2865-26.9322 14.195.2795 5.4209 8.0105 41.0176 17.2318 30.2657 3.3704-3.9315 6.6268-7.2558 6.6268-7.2558 1.6175 1.0422 3.5538 1.5738 5.5837 1.3828l.1577-.1298c-.049.4881-.0266.9656.0632 1.5308-2.3755 2.5744-1.6775 3.0264-6.4263 3.9745-4.8052.9606-1.9823 2.6706-.1393 3.1176 2.2343.5419 7.4035 1.3096 10.8962-3.4328l-.1394.5411c.9308.7231 1.5844 4.7036 1.4749 8.3118s-.1827 6.0857.5507 8.0206 1.4644 6.2887 7.7071 4.9913c5.2163-1.0843 7.9195-3.8941 8.2955-8.581.2669-3.332.8708-2.8395.9089-5.8185l.4844-1.4103c.5586-4.5168.0888-5.974 3.3025-5.2962l.781.0665c2.3654.1044 5.4612-.369 7.2781-1.1882 3.9126-1.7611 6.233-4.7016 2.3752-3.929h.0004" fill="#336791"/><path d="M31.901 23.3005c-.7931-.1071-1.5116-.008-1.8751.2589-.2045.1502-.2677.3242-.2847.444-.0456.3172.1836.6679.3243.8488.3983.5121.9803.8642 1.5564.9417.0834.0112.1664.0167.249.0167.9607 0 1.8339-.7255 1.9109-1.261.0963-.6706-.9075-1.1177-1.8808-1.2491m26.2787.0212h-.0002c-.0755-.5256-1.0401-.6755-1.9553-.5521s-1.8002.5236-1.7262 1.0505c.0595.4097.822 1.1092 1.725 1.109.0761 0 .1531-.0049.2306-.0154.6027-.081 1.0449-.4522 1.2549-.6662.32-.3259.505-.6895.4712-.9258m15.078 22.5155c-.3356-.9845-1.4159-1.3013-3.2108-.9417-5.3292 1.0668-7.2377.3278-7.8645-.1198 4.1424-6.121 7.5501-13.5196 9.3884-20.4229.8709-3.2699 1.352-6.3066 1.3912-8.7817.0434-2.7171-.4335-4.7134-1.4175-5.9329-3.9669-4.9166-9.7887-7.5537-16.8363-7.6262-4.8448-.0528-8.9383 1.1499-9.7319 1.4881-1.6712-.4032-3.493-.6506-5.4762-.6822-3.6372-.0571-6.781.7875-9.384 2.509-1.1307-.408-4.0527-1.381-7.6259-1.9392-6.178-.965-11.0871-.2339-14.5904 2.1734-4.1803 2.8726-6.1101 8.0075-5.7361 15.2616.1258 2.4408 1.5593 9.9487 3.822 17.139 2.9782 9.4635 6.2154 14.8211 9.6218 15.923.3987.129.8585.2193 1.3653.2193 1.2427 0 2.766-.5434 4.3511-2.3916 2.6327-3.0722 5.0909-5.6466 5.997-6.582 1.339.6973 2.8099 1.0865 4.3146 1.1255.0027.0382.0067.0764.0102.1144-.3019.3473-.5495.6516-.7606.9115-1.0424 1.2836-1.2594 1.5507-4.6151 2.221-.9544.191-3.4898.6978-3.5268 2.4214-.0404 1.8833 2.9966 2.6742 3.3428 2.7581 1.2058.2928 2.3674.4372 3.4753.4372 2.6946-.0002 5.0656-.859 6.9606-2.5209-.0585 6.7139.2303 13.3296 1.0613 15.3454.6806 1.65 2.3435 5.6829 7.5963 5.6825.7705 0 1.619-.0868 2.5523-.2809 5.4818-1.1401 7.8623-3.4901 8.7832-8.671.4928-2.7689 1.3386-9.3811 1.7362-12.9277.8394.2539 1.9202.3702 3.0884.37 2.4366 0 5.2481-.5021 7.0113-1.2959 1.9806-.8922 5.555-3.0817 4.9068-4.9838h0zM60.203 21.8706c-.0181 1.0471-.1667 1.9976-.3242 2.9899-.1694 1.0671-.3448 2.1704-.3889 3.5098-.0435 1.3034.1243 2.6585.2867 3.9689.3279 2.6468.6644 5.3719-.6384 8.0609-.2025-.3488-.3979-.7294-.5771-1.1508-.1619-.3807-.5135-.9923-1.0001-1.8388-1.8941-3.2945-6.3295-11.0096-4.059-14.1579.6762-.9373 2.3925-1.9005 6.701-1.382h0zM54.9807 4.1323c6.3145.1353 11.3093 2.4265 14.8459 6.8098 2.7124 3.3621-.2744 18.6603-8.921 31.858l-.2623-.3204-.1094-.1328c2.2344-3.5791 1.7974-7.1203 1.4086-10.2601-.1598-1.2885-.3107-2.5055-.2723-3.6484.0397-1.212.2049-2.2509.3645-3.2557.1965-1.2384.3962-2.5196.3411-4.03.0411-.1584.0577-.3456.0362-.5678-.1407-1.4485-1.8455-5.783-5.3205-9.7068-1.9006-2.1458-4.6727-4.5474-8.4574-6.1672 1.6279-.3272 3.8542-.6324 6.3466-.5786h0zM19.6466 50.3596c-1.7463 2.0365-2.9524 1.6463-3.3489 1.5181-2.5841-.8361-5.5823-6.1333-8.2257-14.5337-2.2874-7.2685-3.6241-14.5775-3.7298-16.6271C4.0081 14.2351 5.628 9.7176 9.1571 7.2901c5.7433-3.9506 15.1859-1.586 18.9801-.3867l-.1653.154c-6.2261 6.099-6.0784 16.5194-6.0632 17.1562-.0005.2458.0206.5938.0499 1.0724.1071 1.7526.3064 5.0145-.2261 8.7086-.4951 3.4327.5958 6.7927 2.9925 9.2182a10.634 10.634 0 0 0 .7747.7086c-1.0669 1.1082-3.3854 3.5587-5.8531 6.4382h0zM26.3 41.7488c-1.9318-1.9548-2.809-4.6742-2.4072-7.4612.5624-3.9024.3547-7.301.2432-9.1268l-.0376-.6561c.9096-.7821 5.1247-2.9729 8.1305-2.3048 1.372.3049 2.2076 1.2107 2.5551 2.7692 1.7986 8.0681.2382 11.4308-1.0156 14.133-.2585.5567-.5026 1.0829-.7112 1.6274l-.1616.4208c-.4091 1.0641-.7897 2.0533-1.0256 2.9928-2.0534-.0061-4.0511-.8568-5.57-2.3943h0zm.3151 10.8809c-.5995-.1453-1.1388-.3977-1.4552-.607.2642-.1207.7346-.2847 1.5503-.4476 3.9476-.7884 4.5572-1.3446 5.8885-2.9843.3053-.3758.6513-.802 1.1305-1.321.7143-.7757 1.0406-.6443 1.6326-.4062.4799.1926.9471.7758 1.1366 1.4178.0896.3031.1904.8787-.1391 1.3263-2.7812 3.7769-6.8337 3.7284-9.7442 3.022h0zm20.6594 18.6472c-4.8293 1.0036-6.5392-1.3864-7.6659-4.1186-.7273-1.7641-1.0846-9.7184-.8311-18.5023a1.025 1.025 0 0 0-.047-.3359c-.0289-.2049-.0734-.4121-.135-.6207-.3773-1.2781-1.2961-2.3473-2.3986-2.7905-.438-.176-1.2421-.499-2.2082-.2593.2061-.8234.5634-1.7531.9507-2.7599l.1626-.4237c.183-.4774.4124-.9721.6553-1.4955 1.3121-2.8275 3.1091-6.7 1.1588-15.4486-.7306-3.2767-3.17-4.8768-6.8681-4.5053-2.2172.2225-4.2454 1.0902-5.257 1.5877-.2175.107-.4165.2102-.6023.3108.2823-3.3017 1.3492-9.4717 5.3397-13.3755 2.5124-2.4577 5.8586-3.6715 9.9356-3.6061 8.0331.1276 13.1844 4.1262 16.0916 7.4583 2.505 2.8714 3.8615 5.7637 4.403 7.3235-4.0713-.4014-6.8402.3782-8.244 2.3246-3.0536 4.2338 1.6707 12.4517 3.9412 16.4011.4164.7239.7758 1.3494.8888 1.6152.7394 1.7381 1.6966 2.8984 2.3955 3.7455.2142.2596.4221.5113.5801.7311-1.233.3449-3.4479 1.1415-3.2461 5.1236-.1627 1.9983-1.3205 11.3534-1.9085 14.6587-.7763 4.3666-2.4329 5.9931-7.0911 6.9618h0zm20.1579-22.375c-1.2609.5678-3.3709.9937-5.3755 1.085-2.214.1006-3.341-.2405-3.6061-.4503-.1246-2.4815.8279-2.7409 1.8357-3.0154.1584-.0432.3129-.0852.462-.1357.0927.0731.1942.1457.3053.2169 1.7796 1.1392 4.9536 1.2621 9.4343.3651l.0492-.0097c-.6043.5481-1.6385 1.2837-3.1049 1.9441h0z"/></svg>