<svg xmlns="http://www.w3.org/2000/svg" width="79" height="79" stroke="#000" stroke-linecap="round" stroke-linejoin="round" fill="#fff" fill-rule="evenodd"><path d="M32.1109 39.3806c0-4.4496 3.1448-8.0319 7.0512-8.0319s7.0513 3.5823 7.0513 8.0319-3.1448 8.0321-7.0513 8.0321-7.0512-3.5822-7.0512-8.0321z" stroke="none" fill="#00d8ff"/><g stroke="#00d8ff" fill="none" stroke-width="2.7341"><path d="M39.1623 23.05c9.4672 0 18.262 1.5474 24.8932 4.1478 7.9898 3.1332 12.9022 7.8825 12.9022 12.1828 0 4.483-5.2062 9.5268-13.7861 12.765-6.4866 2.4495-15.0225 3.7259-24.0093 3.7259-9.2139 0-17.939-1.1996-24.4987-3.7529-8.2992-3.2312-13.2965-8.342-13.2965-12.738 0-4.2654 4.6903-8.9779 12.5678-12.1063 6.6558-2.6418 15.6679-4.2243 25.2275-4.2243z"/><path d="M26.6818 31.2624c4.7297-9.3418 10.2999-17.2471 15.5903-22.4916 6.3742-6.3187 12.4401-8.7932 15.7104-6.645 3.4083 2.2386 4.6443 9.8966 2.8206 19.9803-1.3775 7.6239-4.6713 16.6849-9.1608 25.5528-4.6032 9.0919-9.874 17.1023-15.0924 22.298-6.6032 6.5752-12.9873 8.9547-16.3303 6.7585-3.244-2.1293-4.4846-9.1131-2.9284-18.4493 1.3149-7.8884 4.6148-17.5707 9.3891-27.0039z"/><path d="M26.6937 47.6828c-4.7431-9.3313-7.9723-18.7782-9.3188-26.6183-1.6225-9.4461-.4754-16.6668 2.792-18.8228 3.4048-2.2453 9.8465.3592 16.6051 7.1951 5.11 5.1681 10.3572 12.9423 14.8598 21.8019 4.6164 9.0832 8.0764 18.284 9.4224 26.0302 1.7031 9.8004.3232 17.2887-3.0155 19.4911-3.2407 2.1371-9.1711-.1255-15.4947-6.3242-5.3428-5.2353-11.0591-13.3292-15.8489-22.7532z"/></g></svg>