<svg xmlns="http://www.w3.org/2000/svg" width="76" height="76" stroke="#000" stroke-linecap="round" stroke-linejoin="round" fill="#fff" fill-rule="evenodd"><path d="M0 37.7965v37.7941h75.5906V0H0zm60.9158-3.0118c1.9192.4796 3.3838 1.3323 4.7278 2.7236.7087.744 1.7279 2.0999 1.8118 2.4235.0236.0945-3.2633 2.3031-5.2558 3.5397-.0708.0472-.3602-.2634-.685-.7441-.972-1.4173-1.9913-2.0279-3.5514-2.1354-2.2913-.1559-3.7795 1.0441-3.7558 3.0472 0 .5882.0826.9354.3236 1.4173.5043 1.044 1.4409 1.6676 4.3794 2.9526 5.4116 2.3267 7.7265 3.8621 9.165 6.0471 1.6063 2.4353 1.9677 6.3234.8764 9.2147-1.2 3.144-4.1751 5.2793-8.362 5.988-1.2956.2279-4.3675.1925-5.7588-.0591-3.0354-.5397-5.9148-2.0397-7.6911-4.0073-.7087-.7677-2.0515-2.772-1.9677-2.9173.0354-.0472.3484-.2397.7087-.4441l2.8073-1.618 2.1732-1.2602.4559.6732c.6354.972 2.0279 2.3031 2.8676 2.7471 2.4118 1.2721 5.7235 1.0914 7.3545-.372.7087-.6354.9838-1.2956.9838-2.2676 0-.8764-.1181-1.2602-.5633-1.9193-.5882-.8267-1.7882-1.5353-5.1967-3.0235-3.8999-1.6795-5.5794-2.7235-7.1148-4.3794-.8881-.9602-1.7278-2.4956-2.0763-3.7794-.2881-1.0677-.3602-3.744-.1322-4.8235.8031-3.7794 3.6471-6.3954 7.7513-7.1749 1.3322-.2516 4.429-.1559 5.7352.1677zm-17.7455 3.1535l.0236 3.0944h-9.8382v27.944h-6.9589v-27.944h-9.8383v-3.0354l.0827-3.118c.0354-.0472 6.0234-.0708 13.2823-.059l13.2102.0354z" stroke="none" fill="#007acc" fill-rule="nonzero"/></svg>